<svg id="Ebene_1" data-name="Ebene 1" xmlns="http://www.w3.org/2000/svg" viewBox="0 0 38 40"><defs><style>.cls-1{fill:#dfdfd8;}</style></defs><path class="cls-1" d="M33.53,21.46a5.18,5.18,0,0,0-5.06-5.18,9.21,9.21,0,0,0-17.7-2.36,6.37,6.37,0,0,0,.05,12.73H28.35A5.2,5.2,0,0,0,33.53,21.46Z"/><path class="cls-1" d="M10.53,30.86a1,1,0,1,1,0-2H27.76a1,1,0,0,1,0,2H10.53Z"/><path class="cls-1" d="M10.53,40a1,1,0,1,1,0-2H27.76a1,1,0,0,1,0,2H10.53Z"/><path class="cls-1" d="M5.64,35.41a1,1,0,0,1,0-2H19.76a1,1,0,1,1,0,2H5.64Z"/><path class="cls-1" d="M24.27,35.41a1,1,0,0,1,0-2H31.2a1,1,0,0,1,0,2H24.27Z"/></svg>