<svg id="Ebene_1" data-name="Ebene 1" xmlns="http://www.w3.org/2000/svg" viewBox="0 0 38 40"><defs><style>.cls-1{fill:#ffb70f;}.cls-2{fill:#dfdfd8;}.cls-3{fill:#34b5d0;}</style></defs><path class="cls-1" d="M25.85,4.3a1,1,0,0,1-1-1V1.1a1,1,0,0,1,2,0V3.3A1,1,0,0,1,25.85,4.3Z"/><path class="cls-1" d="M36.81,13.05H34.6a1,1,0,0,1,0-2h2.2A1,1,0,0,1,36.81,13.05Z"/><path class="cls-1" d="M32,6.86a1,1,0,0,1-.71-1.71L32.89,3.6A1,1,0,0,1,34.31,5L32.75,6.57A1,1,0,0,1,32,6.86Z"/><path class="cls-1" d="M33.6,20.79a1,1,0,0,1-.71-0.29l-1.56-1.56a1,1,0,1,1,1.41-1.41l1.56,1.56A1,1,0,0,1,33.6,20.79Z"/><path class="cls-1" d="M19.67,6.86A1,1,0,0,1,19,6.57L17.4,5A1,1,0,0,1,18.82,3.6l1.56,1.56A1,1,0,0,1,19.67,6.86Z"/><path class="cls-2" d="M24.21,16.29a9.21,9.21,0,0,0-17.7-2.36,6.37,6.37,0,0,0,.05,12.73H24.08A5.19,5.19,0,0,0,24.21,16.29Z"/><path class="cls-1" d="M25.9,14.52a7.12,7.12,0,0,1,3.23,1.84,5.41,5.41,0,1,0-7.3-7.91A11.25,11.25,0,0,1,25.9,14.52Z"/><circle class="cls-3" cx="2.26" cy="38.94" r="1"/><circle class="cls-3" cx="7.42" cy="30" r="1"/><circle class="cls-3" cx="4.87" cy="34.47" r="1"/><circle class="cls-3" cx="16.34" cy="38.94" r="1"/><circle class="cls-3" cx="21.5" cy="30" r="1"/><circle class="cls-3" cx="18.95" cy="34.47" r="1"/><circle class="cls-3" cx="9.3" cy="38.94" r="1"/><circle class="cls-3" cx="14.46" cy="30" r="1"/><circle class="cls-3" cx="11.91" cy="34.47" r="1"/></svg>