<svg id="Ebene_1" data-name="Ebene 1" xmlns="http://www.w3.org/2000/svg" viewBox="0 0 38 40"><defs><style>.cls-1{fill:#c0beb2;}.cls-2{fill:#34b5d0;}</style></defs><path class="cls-1" d="M33.53,21.46a5.18,5.18,0,0,0-5.06-5.18,9.21,9.21,0,0,0-17.7-2.36,6.37,6.37,0,0,0,.05,12.73H28.35A5.2,5.2,0,0,0,33.53,21.46Z"/><path class="cls-2" d="M10.2,33.61a1,1,0,0,1-.87-1.5l1.5-2.61a1,1,0,1,1,1.73,1l-1.5,2.61A1,1,0,0,1,10.2,33.61Z"/><path class="cls-2" d="M6.55,39.94a1,1,0,0,1-.87-1.5l1.5-2.61a1,1,0,0,1,1.73,1l-1.5,2.61A1,1,0,0,1,6.55,39.94Z"/><path class="cls-2" d="M24.27,33.61a1,1,0,0,1-.87-1.5l1.51-2.61a1,1,0,1,1,1.73,1l-1.51,2.61A1,1,0,0,1,24.27,33.61Z"/><path class="cls-2" d="M20.61,39.94a1,1,0,0,1-.87-1.5l1.5-2.61a1,1,0,0,1,1.73,1l-1.5,2.61A1,1,0,0,1,20.61,39.94Z"/><path class="cls-2" d="M17.24,33.61a1,1,0,0,1-.87-1.5l1.5-2.61a1,1,0,1,1,1.73,1l-1.5,2.61A1,1,0,0,1,17.24,33.61Z"/><path class="cls-2" d="M13.58,39.94a1,1,0,0,1-.87-1.5l1.5-2.61a1,1,0,0,1,1.73,1l-1.5,2.61A1,1,0,0,1,13.58,39.94Z"/></svg>