<svg id="Ebene_1" data-name="Ebene 1" xmlns="http://www.w3.org/2000/svg" viewBox="0 0 38 40"><defs><style>.cls-1{fill:#dfdfd8;}.cls-2{fill:#ffb70f;}</style></defs><title>_</title><path class="cls-1" d="M18.63,31a5.83,5.83,0,0,0-11.2-1.49,4,4,0,0,0,0,8.06H18.55A3.28,3.28,0,0,0,18.63,31Z"/><path class="cls-2" d="M19,11.51a1,1,0,0,0,1-1V7.36a1,1,0,1,0-2,0v3.15A1,1,0,0,0,19,11.51Z"/><path class="cls-2" d="M34.64,22H31.5a1,1,0,1,0,0,2h3.15A1,1,0,0,0,34.64,22Z"/><path class="cls-2" d="M3.36,24H6.5a1,1,0,0,0,0-2H3.36A1,1,0,1,0,3.36,24Z"/><path class="cls-2" d="M27.84,15.17a1,1,0,0,0,.71-0.29l2.22-2.22a1,1,0,0,0-1.41-1.41l-2.22,2.22A1,1,0,0,0,27.84,15.17Z"/><path class="cls-2" d="M28.54,31.14a1,1,0,1,0-1.41,1.41l2.22,2.22a1,1,0,0,0,1.41-1.41Z"/><path class="cls-2" d="M9.46,14.88a1,1,0,0,0,1.41-1.41L8.65,11.24a1,1,0,0,0-1.41,1.41Z"/><path class="cls-2" d="M19,15.26A7.75,7.75,0,0,0,11.25,23a7.66,7.66,0,0,0,.1,1,7.73,7.73,0,0,1,8.94,5.28,5.23,5.23,0,0,1,1.59.89A7.74,7.74,0,0,0,19,15.26Z"/></svg>