<svg id="Ebene_1" data-name="Ebene 1" xmlns="http://www.w3.org/2000/svg" viewBox="0 0 38 40"><defs><style>.cls-1{fill:#dfdfd8;}.cls-2{fill:#c0beb2;}</style></defs><path class="cls-1" d="M33.53,21.46a5.18,5.18,0,0,0-5.06-5.18,9.21,9.21,0,0,0-17.7-2.36,6.37,6.37,0,0,0,.05,12.73H28.35A5.2,5.2,0,0,0,33.53,21.46Z"/><path class="cls-2" d="M19.29,35.78l-2.5-1.44,2.5-1.44a1,1,0,1,0-1-1.73l-2.5,1.44V29.72a1,1,0,0,0-2,0V32.6l-2.5-1.44a1,1,0,1,0-1,1.73l2.5,1.44-2.5,1.44a1,1,0,0,0,1,1.73l2.5-1.44V39a1,1,0,0,0,2,0V36.07l2.5,1.44A1,1,0,1,0,19.29,35.78Z"/><path class="cls-2" d="M28.95,33.28l-1.45-.84,1.45-.84a0.7,0.7,0,1,0-.7-1.21l-1.45.84V29.56a0.7,0.7,0,0,0-1.4,0v1.67l-1.45-.84a0.7,0.7,0,0,0-.7,1.21l1.45,0.84-1.45.84a0.7,0.7,0,0,0,.7,1.21l1.45-.84v1.67a0.7,0.7,0,0,0,1.4,0V33.66l1.45,0.84A0.7,0.7,0,1,0,28.95,33.28Z"/></svg>