<svg id="Ebene_1" data-name="Ebene 1" xmlns="http://www.w3.org/2000/svg" viewBox="0 0 38 40"><defs><style>.cls-1{fill:#c0beb2;}.cls-2{fill:#34b5d0;}</style></defs><path class="cls-1" d="M28.48,16.29a9.21,9.21,0,0,0-17.7-2.36,6.37,6.37,0,0,0,.05,12.73H28.35A5.19,5.19,0,0,0,28.48,16.29Z"/><circle class="cls-2" cx="20.63" cy="38.94" r="1"/><circle class="cls-2" cx="25.8" cy="30" r="1"/><circle class="cls-2" cx="23.24" cy="34.47" r="1"/><circle class="cls-2" cx="15.54" cy="38.94" r="1"/><circle class="cls-2" cx="20.7" cy="30" r="1"/><circle class="cls-2" cx="18.15" cy="34.47" r="1"/><path class="cls-1" d="M14,33.28l-1.45-.84L14,31.61a0.7,0.7,0,0,0-.7-1.21l-1.45.84V29.56a0.7,0.7,0,1,0-1.4,0v1.67L9,30.4a0.7,0.7,0,0,0-.7,1.21l1.45,0.84-1.45.84A0.7,0.7,0,0,0,9,34.5l1.45-.84v1.67a0.7,0.7,0,0,0,1.4,0V33.66l1.45,0.84A0.7,0.7,0,1,0,14,33.28Z"/></svg>