<svg id="Ebene_1" data-name="Ebene 1" xmlns="http://www.w3.org/2000/svg" viewBox="0 0 38 40"><defs><style>.cls-1{fill:#c0beb2;}.cls-2{fill:#34b5d0;}</style></defs><path class="cls-1" d="M33.53,21.46a5.18,5.18,0,0,0-5.06-5.18,9.21,9.21,0,0,0-17.7-2.36,6.37,6.37,0,0,0,.05,12.73H28.35A5.2,5.2,0,0,0,33.53,21.46Z"/><path class="cls-1" d="M14,33.28l-1.45-.84L14,31.61a0.7,0.7,0,0,0-.7-1.21l-1.45.84V29.56a0.7,0.7,0,1,0-1.4,0v1.68L9,30.4a0.7,0.7,0,0,0-.7,1.21l1.45,0.84-1.45.84A0.7,0.7,0,1,0,9,34.5l1.45-.84v1.67a0.7,0.7,0,1,0,1.4,0V33.66l1.45,0.84A0.7,0.7,0,0,0,14,33.28Z"/><path class="cls-2" d="M24.29,33.61a1,1,0,0,1-.87-1.5l1.5-2.61a1,1,0,0,1,1.73,1l-1.5,2.61A1,1,0,0,1,24.29,33.61Z"/><path class="cls-2" d="M20.63,39.94a1,1,0,0,1-.87-1.5l1.51-2.61a1,1,0,1,1,1.73,1L21.5,39.44A1,1,0,0,1,20.63,39.94Z"/><path class="cls-2" d="M19.2,33.61a1,1,0,0,1-.87-1.5l1.5-2.61a1,1,0,0,1,1.73,1l-1.5,2.61A1,1,0,0,1,19.2,33.61Z"/><path class="cls-2" d="M15.54,39.94a1,1,0,0,1-.87-1.5l1.51-2.61a1,1,0,1,1,1.73,1L16.4,39.44A1,1,0,0,1,15.54,39.94Z"/></svg>