<svg id="Ebene_1" data-name="Ebene 1" xmlns="http://www.w3.org/2000/svg" viewBox="0 0 38 40"><defs><style>.cls-1{fill:#ffb70f;}</style></defs><title>_</title><path class="cls-1" d="M19,11.51a1,1,0,0,0,1-1V7.36a1,1,0,1,0-2,0v3.15A1,1,0,0,0,19,11.51Z"/><path class="cls-1" d="M19,34.5a1,1,0,0,0-1,1v3.15a1,1,0,0,0,2,0V35.5A1,1,0,0,0,19,34.5Z"/><path class="cls-1" d="M34.64,22H31.5a1,1,0,1,0,0,2h3.15A1,1,0,0,0,34.64,22Z"/><path class="cls-1" d="M7.5,23a1,1,0,0,0-1-1H3.36a1,1,0,1,0,0,2H6.5A1,1,0,0,0,7.5,23Z"/><path class="cls-1" d="M27.84,15.17a1,1,0,0,0,.71-0.29l2.22-2.22a1,1,0,0,0-1.41-1.41l-2.22,2.22A1,1,0,0,0,27.84,15.17Z"/><path class="cls-1" d="M9.46,31.14L7.23,33.36a1,1,0,1,0,1.41,1.41l2.22-2.22A1,1,0,1,0,9.46,31.14Z"/><path class="cls-1" d="M28.54,31.14a1,1,0,1,0-1.41,1.41l2.22,2.22a1,1,0,0,0,1.41-1.41Z"/><path class="cls-1" d="M8.65,11.24a1,1,0,0,0-1.41,1.41l2.22,2.22a1,1,0,0,0,1.41-1.41Z"/><circle class="cls-1" cx="19" cy="23.01" r="7.75"/></svg>