<?xml version="1.0" encoding="utf-8"?>
<!-- Generator: Adobe Illustrator 25.3.1, SVG Export Plug-In . SVG Version: 6.00 Build 0)  -->
<svg version="1.1" id="Ebene_1" xmlns="http://www.w3.org/2000/svg" xmlns:xlink="http://www.w3.org/1999/xlink" x="0px" y="0px"
	 viewBox="0 0 38 40" style="enable-background:new 0 0 38 40;" xml:space="preserve">
<style type="text/css">
	.st0{fill:#FFB70F;}
	.st1{fill:#DFDFD8;}
	.st2{fill:#C0BEB2;}
	.st3{fill:#34B5D0;}
	.st4{fill:none;stroke:#DFDFD8;stroke-width:2;stroke-linecap:round;stroke-miterlimit:10;}
	.st5{fill:#FFFFFF;}
	.st6{fill:#D9E6ED;}
	.st7{fill:#EAD8D8;}
	.st8{fill:#AA5757;}
	.st9{fill:#5892A8;}
</style>
<path class="st7" d="M31.3,6.9c-0.1-0.7-0.4-1.3-1-1.7c-0.4-0.3-1-0.5-1.5-0.5c-0.8,0-1.5,0.4-2,1L11,26.8h-0.1
	c-1.4,0-2.6,0.6-3.4,1.7c-0.7,0.9-1,2-0.8,3.2c0.2,1.1,0.8,2.1,1.7,2.8c0.7,0.6,1.6,0.9,2.6,0.9c1.4,0,2.6-0.6,3.4-1.7
	c0.8-1.1,1.1-2.5,0.7-3.8l15.9-21C31.2,8.2,31.4,7.6,31.3,6.9z"/>
<path class="st8" d="M27.9,9.6l-1.1-0.8L11.4,29.2c-0.7-0.2-1.5,0-2,0.7c-0.6,0.8-0.5,2,0.4,2.6c0.8,0.6,2,0.5,2.6-0.4
	c0.5-0.6,0.5-1.5,0.1-2.1L27.9,9.6z"/>
</svg>
