<?xml version="1.0" encoding="utf-8"?>
<!-- Generator: Adobe Illustrator 25.3.1, SVG Export Plug-In . SVG Version: 6.00 Build 0)  -->
<svg version="1.1" id="Ebene_1" xmlns="http://www.w3.org/2000/svg" xmlns:xlink="http://www.w3.org/1999/xlink" x="0px" y="0px"
	 viewBox="0 0 38 40" style="enable-background:new 0 0 38 40;" xml:space="preserve">
<style type="text/css">
	.st0{fill:#FFB70F;}
	.st1{fill:#DFDFD8;}
	.st2{fill:#C0BEB2;}
	.st3{fill:#34B5D0;}
	.st4{fill:none;stroke:#DFDFD8;stroke-width:2;stroke-linecap:round;stroke-miterlimit:10;}
	.st5{fill:#FFFFFF;}
	.st6{fill:#D9E6ED;}
	.st7{fill:#EAD8D8;}
	.st8{fill:#AA5757;}
	.st9{fill:#5892A8;}
</style>
<path class="st6" d="M30.3,5.2c-0.4-0.3-1-0.5-1.5-0.5c-0.8,0-1.5,0.4-2,1L11,26.8h-0.1c-1.3,0-2.6,0.6-3.4,1.7
	c-1.4,1.9-1,4.6,0.8,6c0.7,0.6,1.6,0.9,2.6,0.9c1.4,0,2.6-0.6,3.4-1.7c0.7-0.9,1-2,0.8-3.1c0-0.2-0.1-0.4-0.2-0.6l15.9-21
	C31.7,7.6,31.5,6.1,30.3,5.2z"/>
<path class="st9" d="M15.9,25.5l-1.1-0.8l-3.4,4.5c-0.7-0.2-1.5,0-2,0.7c-0.6,0.8-0.5,2,0.4,2.6c0.8,0.6,2,0.5,2.6-0.4
	c0.5-0.6,0.5-1.5,0.1-2.1L15.9,25.5z"/>
</svg>
