<?xml version="1.0" encoding="utf-8"?>
<!-- Generator: Adobe Illustrator 25.3.1, SVG Export Plug-In . SVG Version: 6.00 Build 0)  -->
<svg version="1.1" id="Ebene_1" xmlns="http://www.w3.org/2000/svg" xmlns:xlink="http://www.w3.org/1999/xlink" x="0px" y="0px"
	 viewBox="0 0 38 40" style="enable-background:new 0 0 38 40;" xml:space="preserve">
<style type="text/css">
	.st0{fill:#FFB70F;}
	.st1{fill:#DFDFD8;}
	.st2{fill:#C0BEB2;}
	.st3{fill:#34B5D0;}
	.st4{fill:none;stroke:#DFDFD8;stroke-width:2;stroke-linecap:round;stroke-miterlimit:10;}
	.st5{fill:#FFFFFF;}
	.st6{fill:#D9E6ED;}
	.st7{fill:#EAD8D8;}
	.st8{fill:#AA5757;}
	.st9{fill:#5892A8;}
</style>
<g>
	<path class="st2" d="M25.8,29.8c-0.2,0-0.3-0.1-0.5-0.1l-16.2,0c-0.6,0-1,0.4-1,1c0,0.6,0.4,1,1,1l15.7,0c0,0,0,0,0,0
		c1,0,1.8,0.8,1.8,1.8s-0.8,1.8-1.8,1.8s-1.8-0.8-1.8-1.8c0-0.6-0.4-1-1-1s-1,0.4-1,1c0,2.1,1.7,3.8,3.8,3.8c2.1,0,3.8-1.7,3.8-3.8
		C28.6,31.9,27.4,30.3,25.8,29.8z"/>
</g>
<g>
	<path class="st1" d="M7,21.9C7.5,21.4,8.3,21,9.1,21l6.9,0c0.1-3.1,2.7-5.7,5.8-5.7c2.7,0,5,1.9,5.6,4.4c0.9-0.7,2.1-1.1,3.4-1.1
		c0.9,0,1.8,0.2,2.6,0.6c0.1-0.4,0.2-0.9,0.2-1.3c0-2.8-2.3-5.1-5.1-5.2c-0.6-4.6-4.4-8.1-9.1-8.1c-3.9,0-7.2,2.4-8.6,5.8
		c-3.5,0-6.3,2.9-6.3,6.4C4.5,18.9,5.5,20.7,7,21.9z"/>
</g>
<path class="st2" d="M22.9,25c1.6-0.5,2.7-2.1,2.7-3.8c0-2.1-1.7-3.8-3.8-3.8c-2.1,0-3.8,1.7-3.8,3.8c0,0.6,0.4,1,1,1s1-0.4,1-1
	c0-1,0.8-1.8,1.8-1.8s1.8,0.8,1.8,1.8S22.8,23,21.8,23c0,0,0,0,0,0c0,0,0,0,0,0L9.1,23c-0.6,0-1,0.4-1,1c0,0.6,0.4,1,1,1l13.2,0
	c0,0,0,0,0,0v0v0c0,0,0.1,0,0.1,0C22.6,25,22.8,25,22.9,25z"/>
<path class="st2" d="M30.3,28.4c0.1,0,0.4,0,0.5,0c2.1,0,3.8-1.7,3.8-3.8s-1.7-3.8-3.8-3.8c-2.1,0-3.8,1.7-3.8,3.8c0,0.6,0.4,1,1,1
	s1-0.4,1-1c0-1,0.8-1.8,1.8-1.8s1.8,0.8,1.8,1.8s-0.8,1.8-1.8,1.8c-0.1,0-0.4,0-0.5,0c0,0,0,0,0,0l-24.2,0c-0.6,0-1,0.4-1,1
	c0,0.6,0.4,1,1,1c0,0,0,0,0,0L30.3,28.4C30.3,28.4,30.3,28.4,30.3,28.4z"/>
</svg>
