<?xml version="1.0" encoding="utf-8"?>
<!-- Generator: Adobe Illustrator 25.3.1, SVG Export Plug-In . SVG Version: 6.00 Build 0)  -->
<svg version="1.1" id="Ebene_1" xmlns="http://www.w3.org/2000/svg" xmlns:xlink="http://www.w3.org/1999/xlink" x="0px" y="0px"
	 viewBox="0 0 38 40" style="enable-background:new 0 0 38 40;" xml:space="preserve">
<style type="text/css">
	.st0{fill:#FFB70F;}
	.st1{fill:#DFDFD8;}
	.st2{fill:#C0BEB2;}
	.st3{fill:#34B5D0;}
	.st4{fill:none;stroke:#DFDFD8;stroke-width:2;stroke-linecap:round;stroke-miterlimit:10;}
	.st5{fill:#FFFFFF;}
	.st6{fill:#D9E6ED;}
	.st7{fill:#EAD8D8;}
	.st8{fill:#AA5757;}
	.st9{fill:#5892A8;}
</style>
<g>
	<path class="st0" d="M5.3,18.6c1-4.4,4.6-7.5,8.8-8.3c-0.9,1.2-1.6,2.6-1.9,4.1c-1.4,5.9,2.3,11.9,8.2,13.3
		c1.5,0.4,3.1,0.4,4.5,0.1c-2.6,3.4-7,5.2-11.4,4.1C7.6,30.4,3.9,24.5,5.3,18.6z"/>
	<g>
		<path class="st0" d="M20.3,10.3c1.3-0.2,2.3-1.2,2.5-2.5c0.2,1.3,1.2,2.3,2.5,2.5c-1.3,0.2-2.3,1.2-2.5,2.5
			C22.6,11.5,21.6,10.5,20.3,10.3z"/>
		<path class="st0" d="M28.1,13.4c1.3-0.2,2.3-1.2,2.5-2.5c0.2,1.3,1.2,2.3,2.5,2.5c-1.3,0.2-2.3,1.2-2.5,2.5
			C30.4,14.6,29.4,13.6,28.1,13.4z"/>
		<path class="st0" d="M22.7,18.1c1.3-0.2,2.3-1.2,2.5-2.5c0.2,1.3,1.2,2.3,2.5,2.5c-1.3,0.2-2.3,1.2-2.5,2.5
			C25,19.3,24,18.3,22.7,18.1z"/>
	</g>
</g>
</svg>
