<?xml version="1.0" encoding="utf-8"?>
<!-- Generator: Adobe Illustrator 25.3.1, SVG Export Plug-In . SVG Version: 6.00 Build 0)  -->
<svg version="1.1" id="Ebene_1" xmlns="http://www.w3.org/2000/svg" xmlns:xlink="http://www.w3.org/1999/xlink" x="0px" y="0px"
	 viewBox="0 0 38 40" style="enable-background:new 0 0 38 40;" xml:space="preserve">
<style type="text/css">
	.st0{fill:#FFB70F;}
	.st1{fill:#DFDFD8;}
	.st2{fill:#C0BEB2;}
	.st3{fill:#34B5D0;}
	.st4{fill:none;stroke:#DFDFD8;stroke-width:2;stroke-linecap:round;stroke-miterlimit:10;}
	.st5{fill:#FFFFFF;}
	.st6{fill:#D9E6ED;}
	.st7{fill:#EAD8D8;}
	.st8{fill:#AA5757;}
	.st9{fill:#5892A8;}
</style>
<path class="st0" d="M20.3,10.3c1.3-0.2,2.3-1.2,2.5-2.5c0.2,1.3,1.2,2.3,2.5,2.5c-1.3,0.2-2.3,1.2-2.5,2.5
	C22.6,11.5,21.6,10.5,20.3,10.3z"/>
<path class="st0" d="M28.1,13.4c1.3-0.2,2.3-1.2,2.5-2.5c0.2,1.3,1.2,2.3,2.5,2.5c-1.3,0.2-2.3,1.2-2.5,2.5
	C30.4,14.6,29.4,13.6,28.1,13.4z"/>
<path class="st0" d="M20.3,27.6c-5.9-1.4-9.6-7.3-8.2-13.3c0.4-1.5,1-2.9,1.9-4.1c-4.2,0.8-7.7,3.9-8.8,8.3
	c-0.7,2.9-0.1,5.9,1.3,8.3c0.9-1,2.2-1.5,3.6-1.5c2,0,3.8,1.2,4.6,3c1.2,0.6,2,1.8,2,3.3c0,0.2,0,0.3-0.1,0.5
	c3.2-0.2,6.2-1.8,8.1-4.4C23.4,28,21.9,28,20.3,27.6z"/>
<path class="st1" d="M13.1,29.9c-0.2-1.5-1.4-2.6-2.9-2.6c-1.2,0-2.3,0.8-2.8,1.9c-1.1,0-2,0.9-2,2c0,1.1,0.9,2.1,2,2.1
	c0,0,5.6,0,5.6,0c0.9,0,1.7-0.8,1.7-1.7C14.8,30.7,14,30,13.1,29.9z"/>
<g>
	<path class="st1" d="M22.2,23.1c-1.7,0-3-1.4-3-3.1c0-1.4,1-2.7,2.4-3c0.7-1.2,2-1.9,3.4-1.9c1.7,0,3.3,1.1,3.8,2.8
		c1.1,0.4,1.8,1.3,1.8,2.5c0,1.5-1.2,2.7-2.7,2.7H22.2z"/>
	<path class="st5" d="M24.9,16.2c1.5,0,2.8,1.1,2.9,2.6c0.9,0,1.6,0.8,1.6,1.7c0,0.9-0.7,1.7-1.7,1.7c0,0-5.6,0-5.6,0
		c-1.1,0-2-0.9-2-2.1c0-1.1,0.9-2,2-2C22.6,16.9,23.7,16.2,24.9,16.2 M24.9,14.2c-1.6,0-3.1,0.8-4,2.1c-1.6,0.5-2.7,2.1-2.7,3.8
		c0,2.2,1.8,4.1,4,4.1h5.6c2,0,3.7-1.7,3.7-3.7c0-1.4-0.8-2.7-2-3.3C28.7,15.4,26.9,14.2,24.9,14.2L24.9,14.2z"/>
</g>
</svg>
