<?xml version="1.0" encoding="utf-8"?>
<!-- Generator: Adobe Illustrator 25.3.1, SVG Export Plug-In . SVG Version: 6.00 Build 0)  -->
<svg version="1.1" id="Ebene_1" xmlns="http://www.w3.org/2000/svg" xmlns:xlink="http://www.w3.org/1999/xlink" x="0px" y="0px"
	 viewBox="0 0 38 40" style="enable-background:new 0 0 38 40;" xml:space="preserve">
<style type="text/css">
	.st0{fill:#FFB70F;}
	.st1{fill:#DFDFD8;}
	.st2{fill:#C0BEB2;}
	.st3{fill:#34B5D0;}
	.st4{fill:none;stroke:#DFDFD8;stroke-width:2;stroke-linecap:round;stroke-miterlimit:10;}
	.st5{fill:#FFFFFF;}
	.st6{fill:#D9E6ED;}
	.st7{fill:#EAD8D8;}
	.st8{fill:#AA5757;}
	.st9{fill:#5892A8;}
</style>
<path class="st0" d="M30.5,27.6c-5.9-1.4-9.6-7.3-8.2-13.3c0.4-1.5,1-2.9,1.9-4.1c-4.2,0.8-7.7,3.9-8.8,8.3
	c-0.3,1.1-0.3,2.3-0.3,3.4c3,0.4,5.6,2.5,6.5,5.4c2,0.7,3.4,2.5,3.5,4.8c3.8,0.3,7.5-1.4,9.8-4.4C33.5,28,32,28,30.5,27.6z"/>
<path class="st0" d="M28.1,13.4c1.3-0.2,2.3-1.2,2.5-2.5c0.2,1.3,1.2,2.3,2.5,2.5c-1.3,0.2-2.3,1.2-2.5,2.5
	C30.4,14.6,29.4,13.6,28.1,13.4z"/>
<path class="st1" d="M20,29c-0.4-2.9-2.8-5.1-5.8-5.1c-2.5,0-4.5,1.5-5.4,3.7c-2.2,0-4,1.8-4,4c0,2.2,1.8,4,4,4c0,0,0,0,0,0h11.1
	c1.8,0,3.3-1.5,3.3-3.3C23.2,30.5,21.8,29.1,20,29z"/>
</svg>
