<?xml version="1.0" encoding="utf-8"?>
<!-- Generator: Adobe Illustrator 25.3.1, SVG Export Plug-In . SVG Version: 6.00 Build 0)  -->
<svg version="1.1" id="Ebene_1" xmlns="http://www.w3.org/2000/svg" xmlns:xlink="http://www.w3.org/1999/xlink" x="0px" y="0px"
	 viewBox="0 0 38 40" style="enable-background:new 0 0 38 40;" xml:space="preserve">
<style type="text/css">
	.st0{fill:#FFB70F;}
	.st1{fill:#DFDFD8;}
	.st2{fill:#C0BEB2;}
	.st3{fill:#34B5D0;}
	.st4{fill:none;stroke:#DFDFD8;stroke-width:2;stroke-linecap:round;stroke-miterlimit:10;}
	.st5{fill:#FFFFFF;}
	.st6{fill:#D9E6ED;}
	.st7{fill:#EAD8D8;}
	.st8{fill:#AA5757;}
	.st9{fill:#5892A8;}
</style>
<path class="st0" d="M28.3,22.2c2.5-0.2,4.7-1.5,6.2-3.5c-1.2,0.2-2.4,0.2-3.6-0.1c-4.7-1.1-7.6-5.8-6.5-10.5
	c0.3-1.2,0.8-2.3,1.5-3.2c-3.3,0.6-6.1,3.1-7,6.6c-0.3,1.2-0.3,2.5-0.1,3.6C23.2,15.5,26.8,18.3,28.3,22.2z"/>
<path class="st1" d="M27,25.2c-0.6-4.6-4.4-8.1-9.1-8.1c-3.9,0-7.2,2.4-8.6,5.8c-3.5,0-6.3,2.9-6.3,6.4c0,3.5,2.8,6.4,6.4,6.4h17.5
	c2.9,0,5.2-2.3,5.2-5.2C32.1,27.6,29.8,25.3,27,25.2z"/>
</svg>
