<?xml version="1.0" encoding="utf-8"?>
<!-- Generator: Adobe Illustrator 25.3.1, SVG Export Plug-In . SVG Version: 6.00 Build 0)  -->
<svg version="1.1" id="Ebene_1" xmlns="http://www.w3.org/2000/svg" xmlns:xlink="http://www.w3.org/1999/xlink" x="0px" y="0px"
	 viewBox="0 0 38 40" style="enable-background:new 0 0 38 40;" xml:space="preserve">
<style type="text/css">
	.st0{fill:#FFB70F;}
	.st1{fill:#DFDFD8;}
	.st2{fill:#C0BEB2;}
	.st3{fill:#34B5D0;}
	.st4{fill:none;stroke:#DFDFD8;stroke-width:2;stroke-linecap:round;stroke-miterlimit:10;}
	.st5{fill:#FFFFFF;}
	.st6{fill:#D9E6ED;}
	.st7{fill:#EAD8D8;}
	.st8{fill:#AA5757;}
	.st9{fill:#5892A8;}
</style>
<path class="st0" d="M8.5,25.9h15c0.5-0.4,0.9-0.9,1.3-1.5c-1.5,0.3-3,0.2-4.5-0.1c-5.9-1.4-9.6-7.3-8.2-13.3c0.4-1.5,1-2.9,1.9-4.1
	c-4.2,0.8-7.7,3.9-8.8,8.3C4.3,19.3,5.7,23.3,8.5,25.9z"/>
<g>
	<g>
		<path class="st1" d="M11.1,29.9c-0.6,0-1-0.4-1-1c0-0.6,0.4-1,1-1l17.2,0c0.6,0,1,0.4,1,1c0,0.6-0.4,1-1,1L11.1,29.9z"/>
	</g>
	<g>
		<path class="st1" d="M11.1,39c-0.6,0-1-0.4-1-1c0-0.6,0.4-1,1-1l17.2,0c0.6,0,1,0.4,1,1c0,0.6-0.4,1-1,1L11.1,39z"/>
	</g>
	<g>
		<g>
			<path class="st1" d="M6.2,34.4c-0.6,0-1-0.4-1-1c0-0.6,0.4-1,1-1l14.1,0c0.6,0,1,0.4,1,1c0,0.6-0.4,1-1,1L6.2,34.4z"/>
		</g>
		<g>
			<path class="st1" d="M24.9,34.4c-0.6,0-1-0.4-1-1c0-0.6,0.4-1,1-1l6.9,0c0.6,0,1,0.4,1,1c0,0.6-0.4,1-1,1L24.9,34.4z"/>
		</g>
	</g>
</g>
</svg>
