<?xml version="1.0" encoding="utf-8"?>
<!-- Generator: Adobe Illustrator 25.3.1, SVG Export Plug-In . SVG Version: 6.00 Build 0)  -->
<svg version="1.1" id="Ebene_1" xmlns="http://www.w3.org/2000/svg" xmlns:xlink="http://www.w3.org/1999/xlink" x="0px" y="0px"
	 viewBox="0 0 38 40" style="enable-background:new 0 0 38 40;" xml:space="preserve">
<style type="text/css">
	.st0{fill:#FFB70F;}
	.st1{fill:#DFDFD8;}
	.st2{fill:#C0BEB2;}
	.st3{fill:#34B5D0;}
	.st4{fill:none;stroke:#DFDFD8;stroke-width:2;stroke-linecap:round;stroke-miterlimit:10;}
	.st5{fill:#FFFFFF;}
	.st6{fill:#D9E6ED;}
	.st7{fill:#EAD8D8;}
	.st8{fill:#AA5757;}
	.st9{fill:#5892A8;}
</style>
<path class="st0" d="M27,21.1c1.9,0,3.6,0.7,4.9,1.8c1.3-0.4,2.4-1.2,3.2-2.3c-0.9,0.2-1.8,0.1-2.7-0.1c-3.6-0.8-5.8-4.4-4.9-8
	c0.2-0.9,0.6-1.7,1.2-2.5c-2.5,0.5-4.6,2.3-5.3,5c-0.2,0.7-0.2,1.3-0.2,1.9c1.2,1.1,2.2,2.5,2.9,4.1C26.4,21.1,26.7,21.1,27,21.1z"
	/>
<path class="st1" d="M15.7,30.7c0-2.8,2-5.2,4.7-5.9c0.9-1.5,2.2-2.6,3.8-3.2c-1.4-3.2-4.6-5.5-8.4-5.5c-3.9,0-7.2,2.4-8.6,5.8
	c-3.5,0-6.3,2.9-6.3,6.4c0,3.5,2.8,6.4,6.4,6.4c0,0,5.2,0,9.9,0C16.2,33.6,15.7,32.2,15.7,30.7z"/>
<path class="st1" d="M32.8,28.2c-0.4-2.9-2.8-5.1-5.8-5.1c-2.4,0-4.5,1.5-5.4,3.6c-2.2,0-4,1.8-4,4c0,2.2,1.8,4,4,4c0,0,11,0,11,0
	c1.8,0,3.3-1.5,3.3-3.3C36,29.7,34.5,28.2,32.8,28.2z"/>
</svg>
