<?xml version="1.0" encoding="utf-8"?>
<!-- Generator: Adobe Illustrator 25.3.1, SVG Export Plug-In . SVG Version: 6.00 Build 0)  -->
<svg version="1.1" id="Ebene_1" xmlns="http://www.w3.org/2000/svg" xmlns:xlink="http://www.w3.org/1999/xlink" x="0px" y="0px"
	 viewBox="0 0 38 40" style="enable-background:new 0 0 38 40;" xml:space="preserve">
<style type="text/css">
	.st0{fill:#FFB70F;}
	.st1{fill:#DFDFD8;}
	.st2{fill:#C0BEB2;}
	.st3{fill:#34B5D0;}
	.st4{fill:none;stroke:#DFDFD8;stroke-width:2;stroke-linecap:round;stroke-miterlimit:10;}
	.st5{fill:#FFFFFF;}
	.st6{fill:#D9E6ED;}
	.st7{fill:#EAD8D8;}
	.st8{fill:#AA5757;}
	.st9{fill:#5892A8;}
</style>
<polygon class="st0" points="10.9,29.1 14.1,29.1 12.6,32.3 16.1,32.3 10.9,39.9 12.5,34.7 8.8,34.7 "/>
<g>
	<g>
		<g>
			<g>
				<path class="st3" d="M25,33.7c-0.2,0-0.3,0-0.5-0.1c-0.5-0.3-0.6-0.9-0.4-1.4l1.5-2.6c0.3-0.5,0.9-0.6,1.4-0.4
					c0.5,0.3,0.6,0.9,0.4,1.4l-1.5,2.6C25.7,33.5,25.3,33.7,25,33.7z"/>
			</g>
		</g>
		<g>
			<g>
				<path class="st3" d="M21.3,40c-0.2,0-0.3,0-0.5-0.1c-0.5-0.3-0.6-0.9-0.4-1.4l1.5-2.6c0.3-0.5,0.9-0.6,1.4-0.4
					c0.5,0.3,0.6,0.9,0.4,1.4l-1.5,2.6C22,39.8,21.7,40,21.3,40z"/>
			</g>
		</g>
	</g>
	<g>
		<g>
			<g>
				<path class="st3" d="M19.9,33.7c-0.2,0-0.3,0-0.5-0.1c-0.5-0.3-0.6-0.9-0.4-1.4l1.5-2.6c0.3-0.5,0.9-0.6,1.4-0.4
					c0.5,0.3,0.6,0.9,0.4,1.4l-1.5,2.6C20.6,33.5,20.2,33.7,19.9,33.7z"/>
			</g>
		</g>
		<g>
			<g>
				<path class="st3" d="M16.2,40c-0.2,0-0.3,0-0.5-0.1c-0.5-0.3-0.6-0.9-0.4-1.4l1.5-2.6c0.3-0.5,0.9-0.6,1.4-0.4
					c0.5,0.3,0.6,0.9,0.4,1.4l-1.5,2.6C16.9,39.8,16.6,40,16.2,40z"/>
			</g>
		</g>
	</g>
</g>
<path class="st0" d="M30.1,17.9c-3.6-0.8-5.8-4.4-4.9-8c0.2-0.9,0.6-1.7,1.2-2.5c-2.5,0.5-4.6,2.3-5.3,5c-0.1,0.6-0.2,1.3-0.2,1.9
	c1.7,1,3.1,2.5,3.7,4.4c1,0.3,1.9,1,2.5,1.8c2.3,0.2,4.4-0.9,5.7-2.6C32,18.1,31.1,18.1,30.1,17.9z"/>
<path class="st1" d="M23,20.5c-0.4-2.9-2.8-5.1-5.8-5.1c-2.5,0-4.5,1.5-5.4,3.7c-2.2,0-4,1.8-4,4c0,2.2,1.8,4,4,4c0,0,0,0,0,0h11.1
	c1.8,0,3.3-1.5,3.3-3.3C26.2,21.9,24.7,20.5,23,20.5z"/>
</svg>
