<?xml version="1.0" encoding="utf-8"?>
<!-- Generator: Adobe Illustrator 25.3.1, SVG Export Plug-In . SVG Version: 6.00 Build 0)  -->
<svg version="1.1" id="Ebene_1" xmlns="http://www.w3.org/2000/svg" xmlns:xlink="http://www.w3.org/1999/xlink" x="0px" y="0px"
	 viewBox="0 0 38 40" style="enable-background:new 0 0 38 40;" xml:space="preserve">
<style type="text/css">
	.st0{fill:#FFB70F;}
	.st1{fill:#DFDFD8;}
	.st2{fill:#C0BEB2;}
	.st3{fill:#34B5D0;}
	.st4{fill:none;stroke:#DFDFD8;stroke-width:2;stroke-linecap:round;stroke-miterlimit:10;}
	.st5{fill:#FFFFFF;}
	.st6{fill:#D9E6ED;}
	.st7{fill:#EAD8D8;}
	.st8{fill:#AA5757;}
	.st9{fill:#5892A8;}
</style>
<path class="st0" d="M27,12.8c1.9,0,3.6,0.7,4.9,1.8c1.3-0.4,2.4-1.2,3.2-2.3c-0.9,0.2-1.8,0.1-2.7-0.1c-3.6-0.8-5.8-4.4-4.9-8
	c0.2-0.9,0.6-1.7,1.2-2.5c-2.5,0.5-4.6,2.3-5.3,5c-0.2,0.7-0.2,1.3-0.2,1.9c1.2,1.1,2.2,2.5,2.9,4.1C26.4,12.8,26.7,12.8,27,12.8z"
	/>
<path class="st1" d="M15.7,22.4c0-2.8,2-5.2,4.7-5.9c0.9-1.5,2.2-2.6,3.8-3.2c-1.4-3.2-4.6-5.5-8.4-5.5c-3.9,0-7.2,2.4-8.6,5.8
	c-3.5,0-6.3,2.9-6.3,6.4c0,3.5,2.8,6.4,6.4,6.4c0,0,5.2,0,9.9,0C16.2,25.3,15.7,24,15.7,22.4z"/>
<path class="st1" d="M32.8,19.9C32.4,17,30,14.8,27,14.8c-2.4,0-4.5,1.5-5.4,3.6c-2.2,0-4,1.8-4,4c0,1,0.4,2,1,2.7
	c1-1.8,2.9-2.9,5.1-2.9c2.7,0,4.9,1.8,5.6,4.3c1.9,0,3.3,0,3.3,0c1.8,0,3.3-1.5,3.3-3.3C36,21.4,34.5,20,32.8,19.9z"/>
<g>
	<path class="st2" d="M32.8,27.5c-2.1,0-3.8,1.7-3.8,3.8c0,0.6,0.4,1,1,1s1-0.4,1-1c0-1,0.8-1.8,1.8-1.8c1,0,1.8,0.8,1.8,1.8
		s-0.8,1.8-1.8,1.8c-0.1,0-0.4,0-0.5,0l-10.2,0c-0.6,0-1,0.4-1,1c0,0.6,0.4,1,1,1l10.2,0c0.1,0,0.4,0,0.5,0c2.1,0,3.8-1.7,3.8-3.8
		S34.9,27.5,32.8,27.5z"/>
</g>
<path class="st2" d="M18.8,37.2l-1.4-0.8l1.4-0.8c0.3-0.2,0.4-0.6,0.3-1c-0.2-0.3-0.6-0.4-1-0.3l-1.5,0.8l0-1.7
	c0-0.4-0.3-0.7-0.7-0.7c-0.4,0-0.7,0.3-0.7,0.7l0,1.7l-1.5-0.8c-0.3-0.2-0.8-0.1-1,0.3c-0.2,0.3-0.1,0.8,0.3,1l1.5,0.8l-1.4,0.8
	c-0.3,0.2-0.4,0.6-0.3,1c0.1,0.2,0.4,0.3,0.6,0.3c0.1,0,0.2,0,0.3-0.1l1.5-0.8l0,1.7c0,0.4,0.3,0.7,0.7,0.7c0.4,0,0.7-0.3,0.7-0.7
	l0-1.7l1.4,0.8c0.1,0.1,0.2,0.1,0.3,0.1c0.2,0,0.5-0.1,0.6-0.4C19.2,37.9,19.1,37.4,18.8,37.2z"/>
<path class="st2" d="M24.9,31.8c1.6-0.5,2.7-2.1,2.7-3.8c0-2.1-1.7-3.8-3.8-3.8c-2.1,0-3.8,1.7-3.8,3.8c0,0.6,0.4,1,1,1s1-0.4,1-1
	c0-1,0.8-1.8,1.8-1.8s1.8,0.8,1.8,1.8s-0.8,1.8-1.8,1.8c0,0,0,0,0,0c0,0,0,0,0,0l-8.7,0c-0.6,0-1,0.4-1,1c0,0.6,0.4,1,1,1l9.2,0
	c0,0,0,0,0,0l0,0l0,0c0,0,0.1,0,0.1,0C24.6,31.8,24.8,31.8,24.9,31.8z"/>
</svg>
