<?xml version="1.0" encoding="utf-8"?>
<!-- Generator: Adobe Illustrator 25.3.1, SVG Export Plug-In . SVG Version: 6.00 Build 0)  -->
<svg version="1.1" id="Ebene_1" xmlns="http://www.w3.org/2000/svg" xmlns:xlink="http://www.w3.org/1999/xlink" x="0px" y="0px"
	 viewBox="0 0 38 40" style="enable-background:new 0 0 38 40;" xml:space="preserve">
<style type="text/css">
	.st0{fill:#FFB70F;}
	.st1{fill:#DFDFD8;}
	.st2{fill:#C0BEB2;}
	.st3{fill:#34B5D0;}
	.st4{fill:none;stroke:#DFDFD8;stroke-width:2;stroke-linecap:round;stroke-miterlimit:10;}
	.st5{fill:#FFFFFF;}
	.st6{fill:#D9E6ED;}
	.st7{fill:#EAD8D8;}
	.st8{fill:#AA5757;}
	.st9{fill:#5892A8;}
</style>
<path class="st2" d="M15,35.8l-2.5-1.4l2.5-1.4c0.5-0.3,0.6-0.9,0.4-1.4c-0.3-0.5-0.9-0.6-1.4-0.4l-2.5,1.4l0-2.9c0-0.6-0.4-1-1-1
	s-1,0.4-1,1l0,2.9L7,31.2c-0.5-0.3-1.1-0.1-1.4,0.4c-0.3,0.5-0.1,1.1,0.4,1.4l2.5,1.4L6,35.8c-0.5,0.3-0.6,0.9-0.4,1.4
	c0.2,0.3,0.5,0.5,0.9,0.5c0.2,0,0.3,0,0.5-0.1l2.5-1.4l0,2.9c0,0.6,0.4,1,1,1s1-0.4,1-1l0-2.9l2.5,1.4c0.2,0.1,0.3,0.1,0.5,0.1
	c0.3,0,0.7-0.2,0.9-0.5C15.7,36.7,15.5,36.1,15,35.8z"/>
<path class="st2" d="M24.7,33.3l-1.4-0.8l1.4-0.8c0.3-0.2,0.4-0.6,0.3-1s-0.6-0.4-1-0.3l-1.5,0.8l0-1.7c0-0.4-0.3-0.7-0.7-0.7
	s-0.7,0.3-0.7,0.7l0,1.7l-1.5-0.8c-0.3-0.2-0.8-0.1-1,0.3c-0.2,0.3-0.1,0.8,0.3,1l1.5,0.8L19,33.3c-0.3,0.2-0.4,0.6-0.3,1
	c0.1,0.2,0.4,0.3,0.6,0.3c0.1,0,0.2,0,0.3-0.1l1.5-0.8l0,1.7c0,0.4,0.3,0.7,0.7,0.7s0.7-0.3,0.7-0.7l0-1.7l1.4,0.8
	c0.1,0.1,0.2,0.1,0.3,0.1c0.2,0,0.5-0.1,0.6-0.4C25.1,33.9,25,33.5,24.7,33.3z"/>
<path class="st0" d="M27,12.8c1.9,0,3.6,0.7,4.9,1.8c1.3-0.4,2.4-1.2,3.2-2.3c-0.9,0.2-1.8,0.1-2.7-0.1c-3.6-0.8-5.8-4.4-4.9-8
	c0.2-0.9,0.6-1.7,1.2-2.5c-2.5,0.5-4.6,2.3-5.3,5c-0.2,0.7-0.2,1.3-0.2,1.9c1.2,1.1,2.2,2.5,2.9,4.1C26.4,12.8,26.7,12.8,27,12.8z"
	/>
<path class="st1" d="M15.7,22.4c0-2.8,2-5.2,4.7-5.9c0.9-1.5,2.2-2.6,3.8-3.2c-1.4-3.2-4.6-5.5-8.4-5.5c-3.9,0-7.2,2.4-8.6,5.8
	c-3.5,0-6.3,2.9-6.3,6.4c0,3.5,2.8,6.4,6.4,6.4c0,0,5.2,0,9.9,0C16.2,25.3,15.7,24,15.7,22.4z"/>
<path class="st1" d="M32.8,19.9C32.4,17,30,14.8,27,14.8c-2.4,0-4.5,1.5-5.4,3.6c-2.2,0-4,1.8-4,4c0,2.2,1.8,4,4,4c0,0,11,0,11,0
	c1.8,0,3.3-1.5,3.3-3.3C36,21.4,34.5,20,32.8,19.9z"/>
</svg>
