<svg id="Ebene_1" data-name="Ebene 1" xmlns="http://www.w3.org/2000/svg" viewBox="0 0 38 40"><defs><style>.cls-1{fill:#ffb70f;}.cls-2{fill:#dfdfd8;}</style></defs><path class="cls-1" d="M25.85,12.42a1,1,0,0,1-1-1V9.22a1,1,0,1,1,2,0v2.2A1,1,0,0,1,25.85,12.42Z"/><path class="cls-1" d="M36.81,21.17H34.6a1,1,0,0,1,0-2h2.2A1,1,0,0,1,36.81,21.17Z"/><path class="cls-1" d="M32,15a1,1,0,0,1-.71-1.71l1.56-1.56a1,1,0,0,1,1.41,1.41l-1.56,1.56A1,1,0,0,1,32,15Z"/><path class="cls-1" d="M33.6,28.92a1,1,0,0,1-.71-0.29l-1.56-1.56a1,1,0,1,1,1.41-1.41l1.56,1.56A1,1,0,0,1,33.6,28.92Z"/><path class="cls-1" d="M19.67,15A1,1,0,0,1,19,14.69L17.4,13.14a1,1,0,0,1,1.41-1.41l1.56,1.56A1,1,0,0,1,19.67,15Z"/><path class="cls-2" d="M24.21,24.41a9.21,9.21,0,0,0-17.7-2.36,6.37,6.37,0,0,0,.05,12.73H24.08A5.19,5.19,0,0,0,24.21,24.41Z"/><path class="cls-1" d="M25.9,22.64a7.12,7.12,0,0,1,3.23,1.84,5.41,5.41,0,1,0-7.3-7.91A11.25,11.25,0,0,1,25.9,22.64Z"/></svg>