<svg id="Ebene_1" data-name="Ebene 1" xmlns="http://www.w3.org/2000/svg" viewBox="0 0 38 40"><defs><style>.cls-1{fill:#ffb70f;}.cls-2{fill:#dfdfd8;}</style></defs><path class="cls-1" d="M19,11.51a1,1,0,0,0,1-1V7.36a1,1,0,1,0-2,0v3.15A1,1,0,0,0,19,11.51Z"/><path class="cls-1" d="M34.64,22H31.5a1,1,0,1,0,0,2h3.15A1,1,0,0,0,34.64,22Z"/><path class="cls-1" d="M7.5,23a1,1,0,0,0-1-1H3.36a1,1,0,1,0,0,2H6.5A1,1,0,0,0,7.5,23Z"/><path class="cls-1" d="M27.84,15.17a1,1,0,0,0,.71-0.29l2.22-2.22a1,1,0,0,0-1.41-1.41l-2.22,2.22A1,1,0,0,0,27.84,15.17Z"/><path class="cls-1" d="M8.65,11.24a1,1,0,0,0-1.41,1.41l2.22,2.22a1,1,0,0,0,1.41-1.41Z"/><path class="cls-1" d="M25.84,26.58A7.66,7.66,0,0,0,26.75,23a7.75,7.75,0,0,0-15.5,0,7.66,7.66,0,0,0,.91,3.57H25.84Z"/><path class="cls-2" d="M10.45,30.86a1,1,0,1,1,0-2H27.68a1,1,0,0,1,0,2H10.45Z"/><path class="cls-2" d="M10.45,40a1,1,0,1,1,0-2H27.68a1,1,0,0,1,0,2H10.45Z"/><path class="cls-2" d="M5.56,35.41a1,1,0,1,1,0-2H19.68a1,1,0,1,1,0,2H5.56Z"/><path class="cls-2" d="M24.19,35.41a1,1,0,0,1,0-2h6.92a1,1,0,0,1,0,2H24.19Z"/></svg>